<svg data-v-0dd9719b="" version="1.0" xmlns="http://www.w3.org/2000/svg" xmlns:xlink="http://www.w3.org/1999/xlink" width="100%" height="100%" viewBox="0 0 340.000000 250.000000" preserveAspectRatio="xMidYMid meet" color-interpolation-filters="sRGB" style="margin: auto;"> <rect data-v-0dd9719b="" x="0" y="0" width="100%" height="100%" fill="#fff" fill-opacity="1" class="background"></rect> <rect data-v-0dd9719b="" x="0" y="0" width="100%" height="100%" fill="url(#watermark)" fill-opacity="1" class="watermarklayer"></rect> <g data-v-0dd9719b="" fill="#333" class="icon-text-wrapper icon-svg-group iconsvg" transform="translate(71.1300048828125,90.34716415405273)"><g class="iconsvg-imagesvg" transform="translate(0,0)"><g><rect fill="#333" fill-opacity="0" stroke-width="2" x="0" y="0" width="60" height="69.30567266930798" class="image-rect"></rect> <svg x="0" y="0" width="60" height="69.30567266930798" filtersec="colorsb3470378142" class="image-svg-svg primary" style="overflow: visible;"><svg xmlns="http://www.w3.org/2000/svg" viewBox="0 0.0011845403350889683 56.461891174316406 65.21881866455078"><path d="M0 16.24c.18-.12.31-.21.45-.29C3 14.48 5.54 13 8.07 11.54a.77.77 0 0 1 .9 0q3.8 2.22 7.61 4.39a.87.87 0 0 1 .51.88v8.68a.92.92 0 0 1-.52.93c-2.48 1.41-4.94 2.84-7.41 4.26l-.62.32v-.71-8.62a.81.81 0 0 0-.54-.8c-2.49-1.41-5-2.85-7.46-4.29z" fill="#00a0da"></path><path d="M8.5 53.8v-.73-8.49a1 1 0 0 0-.58-1C5.47 42.21 3 40.78.54 39.35L0 39l.43-.27Q4.24 36.56 8 34.35a.81.81 0 0 1 1 0q3.77 2.2 7.56 4.36a.91.91 0 0 1 .53.93v8.68c0 .32 0 .57-.35.77-2.64 1.5-5.26 3-7.88 4.56-.1.06-.19.08-.36.15zM47.94 31v-.71-8.55a.83.83 0 0 0-.48-.83c-2.67-1.52-5.33-3.07-8.07-4.65l.56-.35c2.5-1.44 5-2.87 7.5-4.33a.81.81 0 0 1 .95 0q3.81 2.2 7.6 4.42a.8.8 0 0 1 .46.78v8.92a.85.85 0 0 1-.31.65c-2.63 1.54-5.28 3.06-7.92 4.59a1.44 1.44 0 0 1-.29.06z" fill="#74c6be"></path><path d="M28.22 19.57v-2.21-7a.86.86 0 0 0-.51-.87c-2.66-1.51-5.3-3-8-4.6.16-.12.28-.22.41-.3 2.55-1.48 5.11-3 7.65-4.45a.72.72 0 0 1 .85 0c2.56 1.5 5.14 3 7.7 4.5a1 1 0 0 1 .42.71v8.93a.84.84 0 0 1-.33.64c-2.65 1.56-5.32 3.09-8 4.62a.85.85 0 0 1-.19.03z" fill="#00a0da"></path><path d="M28.22 42.42v-9.23a.91.91 0 0 0-.54-.92c-2.48-1.4-4.94-2.83-7.4-4.25l-.59-.37 1.06-.65c2.32-1.34 4.65-2.67 7-4a.89.89 0 0 1 1 0c2.49 1.46 5 2.91 7.5 4.33a.91.91 0 0 1 .55.92v8.74a1 1 0 0 1-.35.76c-2.63 1.55-5.29 3.06-7.93 4.59z" fill="#74c6be"></path><path d="M28.22 65.22v-9.17a1.1 1.1 0 0 0-.65-1.11c-2.44-1.37-4.87-2.79-7.3-4.19l-.57-.36c.1-.07.15-.12.22-.16 2.62-1.51 5.25-3 7.89-4.53a.9.9 0 0 1 .77 0q3.9 2.2 7.78 4.48a1 1 0 0 1 .38.68v9a.75.75 0 0 1-.24.57c-2.7 1.57-5.43 3.15-8.28 4.79zM39.38 39c2.82-1.63 5.54-3.2 8.26-4.75a.72.72 0 0 1 .61 0q4 2.25 7.88 4.54a.79.79 0 0 1 .33.58v9.11a.65.65 0 0 1-.24.5c-2.71 1.6-5.44 3.18-8.25 4.81v-.73-8.36a1.13 1.13 0 0 0-.65-1.17c-2.41-1.35-4.8-2.74-7.19-4.13z" fill="#00a0da"></path></svg></svg> <!----></g></g> <g transform="translate(67,6.752235412597656)"><g data-gra="path-name" fill-rule="" class="tp-name iconsvg-namesvg"><g transform="scale(1)"><g><path d="M23.44-9.43L21.89-2.1Q20.92-1.63 19.89-1.18 18.86-0.74 17.7-0.41 16.53-0.08 15.15 0.12 13.78 0.31 12.15 0.31L12.15 0.31Q6.95 0.31 4.13-2.02 1.32-4.35 1.32-9.78L1.32-9.78Q1.32-12.92 2.29-15.7 3.26-18.47 5.16-20.55 7.06-22.62 9.86-23.83 12.65-25.03 16.26-25.03L16.26-25.03Q17.97-25.03 19.38-24.8 20.8-24.56 21.94-24.2 23.09-23.83 24-23.4 24.91-22.97 25.65-22.59L25.65-22.59 24.25-15.37 17.27-15.37Q17.31-15.76 17.37-16.38 17.42-17 17.46-17.64 17.5-18.28 17.54-18.9 17.58-19.52 17.58-19.95L17.58-19.95Q17.58-20.26 17.54-20.66 17.5-21.07 17.35-21.46 17.19-21.85 16.86-22.1 16.53-22.35 15.99-22.35L15.99-22.35Q14.98-22.35 14.14-21.52 13.31-20.68 12.65-19.31 11.99-17.93 11.49-16.18 10.98-14.44 10.65-12.63 10.32-10.83 10.15-9.08 9.97-7.33 9.97-6.01L9.97-6.01Q9.97-5.63 10.01-5.04 10.05-4.46 10.24-3.92 10.44-3.38 10.85-2.99 11.25-2.6 11.95-2.6L11.95-2.6Q13.16-2.6 14.28-4.09 15.41-5.59 16.26-9.43L16.26-9.43 23.44-9.43ZM43.62-24.64L46.3 0 37.21 0 36.67-6.17 29.49-6.17 26.74 0 22.97 0 34.42-24.64 43.62-24.64ZM35.51-19.56L30.77-9 36.4-9 35.51-19.56ZM69.58-17.5L63.14-17.5Q63.25-18.08 63.25-19.09L63.25-19.09Q63.25-19.67 63.18-20.24 63.1-20.8 62.9-21.25 62.71-21.69 62.32-21.94 61.93-22.2 61.31-22.2L61.31-22.2Q60.61-22.2 60.03-21.89 59.45-21.58 59-21.09 58.56-20.61 58.31-19.97 58.05-19.33 58.05-18.63L58.05-18.63Q58.05-17.62 58.58-17.07 59.1-16.53 59.96-16.18 60.81-15.83 61.9-15.6 62.98-15.37 64.15-15.06L64.15-15.06Q65.12-14.79 66.09-14.36 67.06-13.93 67.81-13.21 68.57-12.5 69.04-11.35 69.5-10.21 69.5-8.5L69.5-8.5Q69.5-6.05 68.53-4.39 67.56-2.72 65.85-1.67 64.15-0.62 61.8-0.16 59.45 0.31 56.7 0.31L56.7 0.31Q53.9 0.31 52.14-0.06 50.37-0.43 49.36-0.85L49.36-0.85Q48.16-1.36 47.58-2.02L47.58-2.02 48.9-7.33 55.73-7.33Q55.69-6.99 55.65-6.38 55.61-5.78 55.61-5.43L55.61-5.43Q55.61-4.97 55.73-4.46 55.84-3.96 56.09-3.53 56.35-3.1 56.81-2.83 57.28-2.56 57.98-2.56L57.98-2.56Q58.75-2.56 59.35-2.91 59.96-3.26 60.36-3.78 60.77-4.31 60.98-4.95 61.2-5.59 61.2-6.21L61.2-6.21Q61.2-7.06 60.79-7.64 60.38-8.23 59.68-8.63 58.99-9.04 58.07-9.33 57.16-9.62 56.19-9.93L56.19-9.93Q55.26-10.21 54.23-10.59 53.2-10.98 52.35-11.68 51.5-12.38 50.93-13.45 50.37-14.51 50.37-16.18L50.37-16.18Q50.37-18.67 51.63-20.35 52.89-22.04 54.81-23.09 56.73-24.14 59.02-24.58 61.31-25.03 63.37-25.03L63.37-25.03Q66.09-25.03 68.05-24.39 70.01-23.75 71.01-22.9L71.01-22.9 69.58-17.5ZM94.53-24.64L93.87-21.69 87.62-21.69 83.01 0 74.62 0 79.24-21.69 73.07-21.69 73.77-24.64 94.53-24.64ZM91.78 0L97.01-24.64 105.44-24.64 100.86-3.26 108.73-3.26 108.07 0 91.78 0ZM110.48 0L115.72-24.64 132.06-24.64 131.44-21.69 123.52-21.69 121.89-14.2 128.53-14.2 127.9-11.29 121.27-11.29 119.48-2.99 127.4-2.99 126.82 0 110.48 0Z" transform="translate(-1.3200000524520874, 25.030000686645508)"></path></g> <!----> <!----> <!----> <!----> <!----> <!----> <g data-gra="path-name-1" fill="#333" transform="translate(0,28.34000015258789)"><g transform="scale(0.98888)"><path d="M23.81-19.18L16.75-19.18Q16.88-19.82 16.88-20.92L16.88-20.92Q16.88-21.56 16.8-22.18 16.71-22.79 16.5-23.28 16.29-23.77 15.86-24.05 15.44-24.32 14.76-24.32L14.76-24.32Q13.99-24.32 13.35-23.98 12.72-23.64 12.23-23.11 11.74-22.58 11.46-21.88 11.18-21.18 11.18-20.41L11.18-20.41Q11.18-19.31 11.76-18.71 12.33-18.12 13.27-17.73 14.2-17.35 15.39-17.1 16.58-16.84 17.86-16.5L17.86-16.5Q18.92-16.2 19.99-15.73 21.05-15.27 21.88-14.48 22.71-13.69 23.22-12.44 23.73-11.18 23.73-9.31L23.73-9.31Q23.73-6.63 22.67-4.81 21.6-2.98 19.73-1.83 17.86-0.68 15.29-0.17 12.72 0.34 9.7 0.34L9.7 0.34Q6.63 0.34 4.7-0.06 2.76-0.47 1.66-0.94L1.66-0.94Q0.34-1.49-0.3-2.21L-0.3-2.21 1.15-8.04 8.63-8.04Q8.59-7.65 8.55-7 8.51-6.34 8.51-5.95L8.51-5.95Q8.51-5.44 8.63-4.89 8.76-4.34 9.04-3.87 9.31-3.4 9.82-3.1 10.33-2.81 11.1-2.81L11.1-2.81Q11.95-2.81 12.61-3.19 13.27-3.57 13.71-4.15 14.16-4.72 14.39-5.42 14.63-6.12 14.63-6.8L14.63-6.8Q14.63-7.74 14.18-8.38 13.74-9.02 12.97-9.46 12.2-9.91 11.21-10.23 10.21-10.55 9.14-10.89L9.14-10.89Q8.12-11.18 7-11.61 5.87-12.03 4.93-12.8 4-13.57 3.38-14.74 2.76-15.9 2.76-17.73L2.76-17.73Q2.76-20.45 4.15-22.3 5.53-24.15 7.63-25.3 9.74-26.45 12.25-26.94 14.76-27.43 17.01-27.43L17.01-27.43Q19.99-27.43 22.13-26.73 24.28-26.03 25.39-25.09L25.39-25.09 23.81-19.18ZM53.45-27L47.63 0 37.68 0 32.96-19.52 28.79 0 24.96 0 30.7-27 40.87-27 45.33-7.23 49.54-27 53.45-27ZM72.97-27L75.91 0 65.96 0 65.36-6.76 57.49-6.76 54.47 0 50.35 0 62.89-27 72.97-27ZM64.09-21.43L58.9-9.87 65.06-9.87 64.09-21.43ZM102.66-10.33L100.96-2.3Q99.89-1.79 98.77-1.3 97.64-0.81 96.36-0.45 95.09-0.09 93.58 0.13 92.07 0.34 90.28 0.34L90.28 0.34Q84.58 0.34 81.5-2.21 78.42-4.76 78.42-10.72L78.42-10.72Q78.42-14.16 79.48-17.2 80.54-20.24 82.63-22.52 84.71-24.79 87.77-26.11 90.83-27.43 94.79-27.43L94.79-27.43Q96.66-27.43 98.21-27.17 99.76-26.92 101.02-26.51 102.27-26.11 103.27-25.64 104.27-25.18 105.08-24.75L105.08-24.75 103.55-16.84 95.89-16.84Q95.94-17.27 96-17.95 96.06-18.63 96.11-19.33 96.15-20.03 96.19-20.71 96.23-21.39 96.23-21.86L96.23-21.86Q96.23-22.2 96.19-22.64 96.15-23.09 95.98-23.52 95.81-23.94 95.45-24.22 95.09-24.49 94.49-24.49L94.49-24.49Q93.39-24.49 92.47-23.58 91.56-22.67 90.83-21.16 90.11-19.65 89.56-17.73 89.01-15.82 88.64-13.84 88.28-11.86 88.09-9.95 87.9-8.04 87.9-6.59L87.9-6.59Q87.9-6.17 87.94-5.53 87.98-4.89 88.2-4.3 88.41-3.7 88.86-3.27 89.3-2.85 90.07-2.85L90.07-2.85Q91.39-2.85 92.62-4.49 93.85-6.12 94.79-10.33L94.79-10.33 102.66-10.33ZM119.11-27L116.6-15.27 127.11-27.05 131.91-27.05 122.39-16.71 128.85 0 119.58 0 115.84-11.86 113.33 0 104.14 0 109.89-27 119.11-27Z" transform="translate(0.30000001192092896, 27.43000030517578)"></path></g></g></g></g> <!----></g></g><defs v-gra="od"></defs></svg>